<?xml version="1.0" standalone="no"?>
<!DOCTYPE svg PUBLIC "-//W3C//DTD SVG 20010904//EN"
 "http://www.w3.org/TR/2001/REC-SVG-20010904/DTD/svg10.dtd">
<svg version="1.0" xmlns="http://www.w3.org/2000/svg"
 width="88.000000pt" height="88.000000pt" viewBox="0 0 88.000000 88.000000"
 preserveAspectRatio="xMidYMid meet">
<metadata>
Created by potrace 1.14, written by Peter Selinger 2001-2017
</metadata>
<g transform="translate(0.000000,88.000000) scale(0.100000,-0.100000)"
fill="#000000" stroke="none">
<path d="M0 440 l0 -440 440 0 440 0 0 440 0 440 -440 0 -440 0 0 -440z m410
380 c0 -5 7 -10 16 -10 10 0 14 -7 12 -22 -2 -15 3 -24 15 -26 9 -2 17 1 17 7
0 6 -5 11 -11 11 -5 0 -7 5 -4 10 10 16 27 0 22 -21 -6 -23 10 -36 26 -20 8 8
7 11 -3 11 -15 0 -11 8 5 9 6 0 10 -9 10 -21 0 -12 6 -23 14 -26 10 -3 12 0 8
12 -4 10 -1 16 8 16 9 0 14 -8 12 -21 -1 -12 4 -24 12 -27 9 -3 11 1 6 17 -5
16 -3 20 9 15 11 -4 14 -14 10 -30 -5 -18 -2 -24 10 -24 9 0 16 5 16 10 0 6
-5 10 -11 10 -5 0 -8 4 -4 10 11 18 32 -1 27 -26 -3 -17 0 -24 12 -24 9 0 16
5 16 10 0 6 -5 10 -11 10 -5 0 -7 4 -4 10 4 6 17 4 36 -6 22 -11 28 -20 24
-34 -7 -22 12 -37 28 -21 8 8 8 11 -1 11 -7 0 -12 5 -12 11 0 6 6 9 13 6 6 -2
12 -14 12 -27 0 -13 6 -25 14 -28 9 -3 11 1 6 17 -7 22 1 26 23 12 11 -6 -8
-51 -83 -201 -69 -137 -100 -189 -108 -181 -8 8 -7 18 3 36 10 18 11 31 3 47
-7 16 -7 28 0 39 15 25 2 45 -33 52 -30 6 -31 8 -23 44 4 21 8 72 8 113 l0 75
-35 3 c-19 2 -79 4 -132 5 -62 1 -98 5 -98 12 0 16 68 152 69 138 1 -7 8 -13
17 -13 10 0 14 6 10 15 -3 9 0 15 9 15 8 0 15 -4 15 -10z m-157 -327 c3 -61 2
-63 -25 -72 -25 -9 -28 -15 -29 -58 -2 -82 2 -148 11 -157 5 -5 51 -9 102 -8
248 2 268 2 268 -10 0 -7 -68 -148 -75 -156 -2 -3 -424 205 -433 213 -2 1 37
78 85 171 48 93 89 162 90 154 1 -8 4 -43 6 -77z"/>
<path d="M400 795 c0 -8 7 -15 15 -15 8 0 15 4 15 9 0 5 -7 11 -15 15 -9 3
-15 0 -15 -9z"/>
<path d="M666 665 c-6 -17 12 -31 24 -19 5 5 2 14 -5 21 -10 10 -14 9 -19 -2z"/>
</g>
</svg>
